#N canvas 0 22 1276 756 10;
#X obj 100 100 cnv 15 120 300 empty empty empty 20 12 0 14 -195634
-66577 0;
#X obj 105 105 cnv 15 110 290 empty empty empty 20 12 0 14 -54424 -66577
0;
#X obj 123 226 knob 32 32 0 1 0 0 empty reverb_knob_one empty 0 -8
0 8 -260097 -1 -1 2300 1;
#X obj 152 129 cnv 15 15 15 empty empty STANDARD 3 8 1 10 -54424 -195634
0;
#X obj 125 125 vradio 25 1 0 2 empty empty empty 0 -8 0 10 -195634
-260097 -1 0;
#X obj 153 154 cnv 15 15 15 empty empty DLYVERB 3 8 1 10 -54424 -195634
0;
#X obj 123 279 knob 32 32 0 1 0 0 empty reverb_knob_two empty 0 -8
0 8 -260097 -1 -1 0 1;
#X obj 123 337 knob 32 32 0 1 0 0 empty reverb_knob_three empty 0 -8
0 8 -260097 -1 -1 1300 1;
#X obj 161 230 cnv 15 15 15 empty reverb_knob_label_one Size 3 8 1
10 -54424 -195634 0;
#X obj 162 288 cnv 15 15 15 empty reverb_knob_label_two Damp 3 8 1
10 -54424 -195634 0;
#X obj 162 347 cnv 15 15 15 empty reverb_knob_label_three Dry/Wet 3
8 1 10 -54424 -195634 0;
#X obj 231 100 cnv 15 750 575 empty empty empty 20 12 0 14 -195634
-66577 0;
#X obj 237 105 cnv 15 70 30 empty empty empty 15 12 1 15 -1 -66577
0;
#X obj 242 110 cnv 15 60 20 empty empty GUI 15 11 1 15 -262144 -66577
0;
#X obj 246 521 bng 15 250 50 0 empty empty empty 17 7 0 10 -262144
-1 -1;
#X obj 246 474 == 0;
#X obj 274 371 bng 15 250 50 0 empty empty empty 17 7 0 10 -262144
-1 -1;
#X obj 274 335 == 1;
#X obj -211 100 cnv 15 300 550 empty empty empty 20 12 0 14 -195634
-66577 0;
#X obj 14 105 cnv 15 70 30 empty empty empty 15 12 1 15 -1 -66577 0
;
#X obj 19 110 cnv 15 60 20 empty empty CTRL 10 11 1 15 -262144 -66577
0;
#X obj -205 330 *~;
#X obj -181 330 *~;
#X obj -133 192 tgl 15 0 empty empty empty 17 7 0 10 -262144 -1 -1
1 1;
#X obj -118 192 tgl 15 0 empty empty empty 17 7 0 10 -262144 -1 -1
0 1;
#X obj -205 531 *~;
#X obj -181 531 *~;
#X obj -205 105 r~ glitchr_dry_signal;
#X obj -11 207 spigot;
#X obj 39 207 spigot;
#X obj -11 234 spigot;
#X obj 39 234 spigot;
#X obj -205 578 s~ glitchr_reverb_send;
#X msg 246 566 \; reverb_knob_label_one label Size;
#X msg 467 566 \; reverb_knob_label_two label Damp;
#X msg 246 596 \; reverb_knob_one range 0 1;
#X msg 467 596 \; reverb_knob_two range 0 1;
#X msg 671 596 \; reverb_knob_three range 0 1;
#X msg 274 434 \; reverb_knob_one range 0 8;
#X msg 436 434 \; reverb_knob_two range 0 1;
#X msg 694 434 \; reverb_knob_two range 0 1;
#X msg 694 403 \; reverb_knob_label_three label Dry/Wet;
#N canvas 192 61 849 539 glitchr_standard_reverb 0;
#X obj 188 359 freeverb~;
#X obj 187 30 inlet~;
#X obj 188 475 outlet~;
#X obj 232 30 inlet;
#X obj 271 30 inlet;
#X obj 310 30 inlet;
#X floatatom 232 220 5 0 0 0 - - -;
#X floatatom 271 220 5 0 0 0 - - -;
#X floatatom 310 219 5 0 0 0 - - -;
#X connect 0 0 2 0;
#X connect 1 0 0 0;
#X connect 3 0 6 0;
#X connect 4 0 7 0;
#X connect 5 0 8 0;
#X connect 6 0 0 0;
#X connect 7 0 0 0;
#X connect 8 0 0 0;
#X restore -205 421 pd glitchr_standard_reverb;
#X obj -11 175 select 0 1;
#X obj 246 175 select 0 1;
#X msg 671 566 \; reverb_knob_label_three label Dry/Wet;
#X msg 274 404 \; reverb_knob_label_one label Size;
#X msg 472 403 \; reverb_knob_label_two label Damp;
#N canvas 0 22 1276 756 glitchr_echo_delay_reverb 0;
#X obj 207 303 freeverb~;
#X obj 207 50 inlet~;
#X obj 252 50 inlet;
#X obj 291 50 inlet;
#X obj 330 50 inlet;
#X obj 207 474 outlet~;
#X obj 529 389 *~ 0.2;
#X obj 749 389 *~ 0.4;
#X obj 969 389 *~ 0.6;
#X obj 1195 389 *~ 0.8;
#X obj 394 320 delwrite~ glitchr_echo_delay_one 500;
#X obj 399 457 delread~ glitchr_echo_delay_one 150;
#X obj 614 320 delwrite~ glitchr_echo_delay_two 500;
#X obj 619 457 delread~ glitchr_echo_delay_two 150;
#X obj 834 320 delwrite~ glitchr_echo_delay_three 500;
#X obj 839 457 delread~ glitchr_echo_delay_three 150;
#X obj 1066 320 delwrite~ glitchr_echo_delay_four 500;
#X obj 1071 458 delread~ glitchr_echo_delay_four 150;
#X connect 0 0 5 0;
#X connect 0 0 10 0;
#X connect 0 0 12 0;
#X connect 0 0 14 0;
#X connect 0 0 16 0;
#X connect 1 0 0 0;
#X connect 2 0 0 0;
#X connect 3 0 0 0;
#X connect 4 0 0 0;
#X connect 6 0 10 0;
#X connect 7 0 12 0;
#X connect 8 0 14 0;
#X connect 9 0 16 0;
#X connect 11 0 6 0;
#X connect 11 0 5 0;
#X connect 13 0 7 0;
#X connect 13 0 5 0;
#X connect 15 0 8 0;
#X connect 15 0 5 0;
#X connect 17 0 9 0;
#X connect 17 0 5 0;
#X restore -181 367 pd glitchr_echo_delay_reverb;
#X obj -103 556 tgl 15 0 empty empty empty 17 7 0 10 -262144 -1 -1
0.34 0.34;
#X obj -65 477 bng 15 250 50 0 empty empty empty 17 7 0 10 -262144
-1 -1;
#X obj -103 526 line;
#X msg -103 492 1;
#X msg -28 492 0 1000;
#X obj -100 460 r glitchr_reverb_select_sender;
#X connect 2 0 42 1;
#X connect 2 0 48 1;
#X connect 4 0 43 0;
#X connect 4 0 44 0;
#X connect 6 0 42 2;
#X connect 6 0 48 2;
#X connect 7 0 42 3;
#X connect 7 0 48 3;
#X connect 14 0 33 0;
#X connect 14 0 34 0;
#X connect 14 0 45 0;
#X connect 14 0 35 0;
#X connect 14 0 36 0;
#X connect 15 0 14 0;
#X connect 16 0 46 0;
#X connect 16 0 47 0;
#X connect 16 0 41 0;
#X connect 16 0 38 0;
#X connect 16 0 39 0;
#X connect 16 0 40 0;
#X connect 17 0 16 0;
#X connect 21 0 42 0;
#X connect 22 0 48 0;
#X connect 23 0 21 1;
#X connect 23 0 30 1;
#X connect 24 0 22 1;
#X connect 24 0 28 1;
#X connect 25 0 32 0;
#X connect 26 0 32 0;
#X connect 27 0 21 0;
#X connect 27 0 22 0;
#X connect 28 0 24 0;
#X connect 30 0 23 0;
#X connect 41 0 40 0;
#X connect 42 0 25 0;
#X connect 43 0 28 0;
#X connect 43 0 23 0;
#X connect 43 0 29 0;
#X connect 43 1 24 0;
#X connect 43 1 30 0;
#X connect 43 1 31 0;
#X connect 44 0 15 0;
#X connect 44 1 17 0;
#X connect 45 0 37 0;
#X connect 47 0 39 0;
#X connect 48 0 26 0;
#X connect 49 0 26 1;
#X connect 49 0 25 1;
#X connect 50 0 52 0;
#X connect 50 0 53 0;
#X connect 51 0 49 0;
#X connect 52 0 51 0;
#X connect 53 0 51 0;
#X connect 54 0 50 0;
#X coords 0 -1 1 1 120 300 2 100 100;
