#N canvas 0 22 1268 756 10;
#X obj 100 100 cnv 15 120 300 empty empty empty 20 12 0 14 -195634
-66577 0;
#X obj 105 105 cnv 15 110 290 empty empty empty 20 12 0 14 -54424 -66577
0;
#X obj -211 100 cnv 15 300 550 empty empty empty 20 12 0 14 -195634
-66577 0;
#X obj 14 105 cnv 15 70 30 empty empty empty 15 12 1 15 -1 -66577 0
;
#X obj 19 110 cnv 15 60 20 empty empty CTRL 10 11 1 15 -262144 -66577
0;
#X obj -205 531 *~;
#X obj -162 105 r~ glitchr_dry_signal;
#N canvas 530 23 698 756 glitchr_loop_looper 0;
#X obj -358 956 *;
#X obj -310 949 samplerate~;
#X obj -358 932 t f b;
#X obj -358 342 bng 15 250 50 0 empty empty empty 17 7 0 10 -262144
-1 -1;
#X obj -358 910 / 1000;
#X obj -51 1341 +~;
#X obj -36 216 *~;
#X obj 108 1292 spigot;
#X obj -52 1158 sel 1 0;
#X msg -52 1181 bang;
#X msg -33 1207 stop;
#X obj -52 1138 t f f;
#X obj 184 72 bng 15 250 50 0 empty empty empty 17 7 0 10 -262144 -1
-1;
#X obj -52 1118 tgl 15 0 empty empty empty 17 7 0 10 -262144 -1 -1
0 1;
#X msg -83 1101 1;
#X obj 184 92 t b b;
#X obj 184 115 del 2;
#X obj -36 32 inlet~;
#X obj -175 1249 outlet~;
#X obj 9 32 inlet;
#X obj -358 866 * 4;
#X obj -358 85 select 0 1 2 3;
#X obj 184 32 inlet;
#X obj -358 32 inlet;
#X obj -298 1061 % 64;
#X obj -358 1044 t f f;
#X obj -358 1084 -;
#X obj -358 1022 int;
#X obj 72 168 table glitchr_loop_table;
#X obj -51 1402 tabwrite~ glitchr_loop_array;
#X obj -51 1232 tabplay~ glitchr_loop_array;
#X msg -358 1124 \; glitchr_loop_array resize \$1 \;;
#X msg 184 195 \; glitchr_loop_array const 0 \;;
#X obj -358 497 realtime;
#X obj -358 401 t b b;
#X obj -519 493 +;
#X obj -546 492 f;
#X msg -519 466 1;
#X obj -331 470 spigot;
#X obj -546 553 > 1;
#X obj 229 617 sel 1;
#X msg -546 466 0;
#X obj 253 482 metro 1;
#X obj 253 538 +;
#X obj 229 538 f;
#X msg 253 502 1;
#X msg 225 502 0;
#X obj -546 441 sel 1;
#X obj 253 457 tgl 15 0 empty empty empty 17 7 0 10 -262144 -1 -1 0
1;
#X obj -359 655 +;
#X obj -385 655 f;
#X obj 229 569 spigot;
#X obj -385 707 /;
#X obj -474 690 - 1;
#X obj -385 755 sel 0;
#X obj 229 598 > 3000;
#X msg -385 634 0;
#X obj -358 256 select 2 4 6 8 10 12 14 16 18 20 22 24 26 28 30 32
;
#X obj -358 229 select 4 8 12 16 20 24 28 32;
#X obj -358 202 select 8 16 32;
#X obj -358 175 select 16 32;
#X obj -551 102 spigot;
#X obj -501 102 spigot;
#X obj -451 102 spigot;
#X obj -401 102 spigot;
#X obj -551 32 r glitchr_tempo_control;
#X connect 0 0 27 0;
#X connect 1 0 0 1;
#X connect 2 0 0 0;
#X connect 2 1 1 0;
#X connect 3 0 34 0;
#X connect 4 0 2 0;
#X connect 5 0 29 0;
#X connect 6 0 5 1;
#X connect 7 0 29 0;
#X connect 7 0 30 0;
#X connect 8 0 9 0;
#X connect 8 1 10 0;
#X connect 9 0 29 0;
#X connect 9 0 30 0;
#X connect 10 0 29 0;
#X connect 10 0 30 0;
#X connect 11 0 8 0;
#X connect 11 1 7 1;
#X connect 12 0 15 0;
#X connect 13 0 11 0;
#X connect 14 0 13 0;
#X connect 15 0 16 0;
#X connect 15 1 32 0;
#X connect 16 0 32 0;
#X connect 17 0 6 0;
#X connect 19 0 6 1;
#X connect 20 0 4 0;
#X connect 21 0 61 1;
#X connect 21 1 62 1;
#X connect 21 2 63 1;
#X connect 21 3 64 1;
#X connect 22 0 12 0;
#X connect 23 0 21 0;
#X connect 24 0 26 1;
#X connect 25 0 26 0;
#X connect 25 1 24 0;
#X connect 26 0 31 0;
#X connect 26 0 14 0;
#X connect 27 0 25 0;
#X connect 30 0 5 0;
#X connect 30 0 18 0;
#X connect 30 1 7 0;
#X connect 33 0 49 0;
#X connect 34 0 33 0;
#X connect 34 1 37 0;
#X connect 34 1 38 0;
#X connect 34 1 46 0;
#X connect 35 0 36 0;
#X connect 36 0 35 1;
#X connect 36 0 39 0;
#X connect 36 0 53 0;
#X connect 36 0 47 0;
#X connect 37 0 35 0;
#X connect 38 0 33 1;
#X connect 39 0 51 1;
#X connect 39 0 38 1;
#X connect 40 0 41 0;
#X connect 40 0 48 0;
#X connect 40 0 56 0;
#X connect 41 0 36 0;
#X connect 42 0 45 0;
#X connect 43 0 44 0;
#X connect 44 0 43 1;
#X connect 44 0 51 0;
#X connect 45 0 43 0;
#X connect 46 0 44 0;
#X connect 47 0 48 0;
#X connect 48 0 42 0;
#X connect 49 0 50 0;
#X connect 50 0 49 1;
#X connect 50 0 52 0;
#X connect 51 0 55 0;
#X connect 52 0 54 0;
#X connect 53 0 52 1;
#X connect 54 1 20 0;
#X connect 55 0 40 0;
#X connect 56 0 50 0;
#X connect 57 0 3 0;
#X connect 57 1 3 0;
#X connect 57 2 3 0;
#X connect 57 3 3 0;
#X connect 57 4 3 0;
#X connect 57 5 3 0;
#X connect 57 6 3 0;
#X connect 57 7 3 0;
#X connect 57 8 3 0;
#X connect 57 9 3 0;
#X connect 57 10 3 0;
#X connect 57 11 3 0;
#X connect 57 12 3 0;
#X connect 57 13 3 0;
#X connect 57 14 3 0;
#X connect 57 15 3 0;
#X connect 58 0 3 0;
#X connect 58 1 3 0;
#X connect 58 2 3 0;
#X connect 58 3 3 0;
#X connect 58 4 3 0;
#X connect 58 5 3 0;
#X connect 58 6 3 0;
#X connect 58 7 3 0;
#X connect 59 0 3 0;
#X connect 59 1 3 0;
#X connect 59 2 3 0;
#X connect 60 0 3 0;
#X connect 60 1 3 0;
#X connect 61 0 57 0;
#X connect 62 0 58 0;
#X connect 63 0 59 0;
#X connect 64 0 60 0;
#X connect 65 0 61 0;
#X connect 65 0 62 0;
#X connect 65 0 63 0;
#X connect 65 0 64 0;
#X restore -205 426 pd glitchr_loop_looper;
#X obj -205 578 s~ glitchr_loop_send;
#X obj 145 205 tgl 30 0 empty empty empty 17 7 0 10 -54424 -260097
-1 0 1;
#X obj 136 259 cnv 15 15 15 empty empty RECORD 3 8 1 10 -54424 -195634
0;
#X obj 144 245 cnv 15 15 15 empty empty LOOP 3 8 1 10 -54424 -195634
0;
#X obj 141 356 cnv 15 15 15 empty empty CLEAR 3 8 1 10 -54424 -195634
0;
#X obj 145 319 bng 30 250 50 0 empty empty empty 17 7 0 10 -54424 -260097
-1;
#X obj 130 147 hradio 15 1 0 4 empty empty empty 0 -8 0 10 -54424 -260097
-1 0;
#X obj 145 163 cnv 15 15 15 empty empty STEP 3 8 1 10 -54424 -195634
0;
#X obj 147 131 cnv 15 15 15 empty empty 4 3 8 1 10 -54424 -195634 0
;
#X obj 174 131 cnv 15 15 15 empty empty 16 3 8 1 10 -54424 -195634
0;
#X obj 162 131 cnv 15 15 15 empty empty 8 3 8 1 10 -54424 -195634 0
;
#X obj 132 131 cnv 15 15 15 empty empty 2 3 8 1 10 -54424 -195634 0
;
#X obj -104 460 r glitchr_looper_select_sender;
#X obj 2 578 tgl 15 0 empty empty empty 17 7 0 10 -262144 -1 -1 0 0.02
;
#X obj 40 499 bng 15 250 50 0 empty empty empty 17 7 0 10 -262144 -1
-1;
#X obj 2 548 line;
#X msg 2 514 1;
#X msg 77 514 0 1000;
#X connect 5 0 8 0;
#X connect 6 0 7 1;
#X connect 7 0 5 0;
#X connect 9 0 7 2;
#X connect 13 0 7 3;
#X connect 14 0 7 0;
#X connect 20 0 22 0;
#X connect 21 0 5 1;
#X connect 22 0 24 0;
#X connect 22 0 25 0;
#X connect 23 0 21 0;
#X connect 24 0 23 0;
#X connect 25 0 23 0;
#X coords 0 -1 1 1 120 300 2 100 100;
