#N canvas 0 22 1142 756 10;
#X obj 100 100 cnv 15 120 300 empty empty empty 20 12 0 14 -195634
-66577 0;
#X obj 105 105 cnv 15 110 290 empty empty empty 20 12 0 14 -54424 -66577
0;
#X obj 123 222 knob 32 32 0 8 0 0 empty delay_knob_one empty 0 -8 0
8 -260097 -260097 -1 900 1;
#X obj 152 129 cnv 15 15 15 empty empty STANDARD 3 8 1 10 -54424 -195634
0;
#X obj 125 125 vradio 25 1 0 3 empty empty empty 0 -8 0 10 -195634
-260097 -1 1;
#X obj 153 154 cnv 15 15 15 empty empty SYNC 3 8 1 10 -54424 -195634
0;
#X obj 153 180 cnv 15 15 15 empty empty SPECTRAL 3 8 1 10 -54424 -195634
0;
#X obj 123 279 knob 32 32 0 1 0 0 empty delay_knob_two empty 0 -8 0
8 -260097 -260097 -1 1900 1;
#X obj 123 337 knob 32 32 0 1 0 0 empty delay_knob_three empty 0 -8
0 8 -260097 -260097 -1 2600 1;
#X obj 161 230 cnv 15 15 15 empty delay_knob_label_one Step 3 8 1 10
-54424 -195634 0;
#X obj 162 288 cnv 15 15 15 empty delay_knob_label_two Feedback 3 8
1 10 -54424 -195634 0;
#X obj 162 347 cnv 15 15 15 empty delay_knob_label_three Dry/Wet 3
8 1 10 -54424 -195634 0;
#X obj 231 100 cnv 15 750 550 empty empty empty 20 12 0 14 -195634
-66577 0;
#X obj 237 105 cnv 15 70 30 empty empty empty 15 12 1 15 -1 -66577
0;
#X obj 242 110 cnv 15 60 20 empty empty GUI 15 11 1 15 -262144 -66577
0;
#X obj 246 522 bng 15 250 50 0 empty empty empty 17 7 0 10 -262144
-1 -1;
#X obj 246 475 == 0;
#X obj 269 372 bng 15 250 50 0 empty empty empty 17 7 0 10 -262144
-1 -1;
#X obj 269 336 == 1;
#X obj 246 200 select 0 1 2;
#X obj 292 263 bng 15 250 50 0 empty empty empty 17 7 0 10 -262144
-1 -1;
#X obj 292 227 == 2;
#X msg 246 567 \; delay_knob_label_one label Amount;
#X msg 467 567 \; delay_knob_label_two label N/A;
#X msg 671 567 \; delay_knob_label_three label N/A;
#X msg 729 296 \; delay_knob_label_three label N/A;
#X msg 525 296 \; delay_knob_label_two label N/A;
#X msg 291 296 \; delay_knob_label_one label Spectral;
#X obj -211 100 cnv 15 300 550 empty empty empty 20 12 0 14 -195634
-66577 0;
#X obj 14 105 cnv 15 70 30 empty empty empty 15 12 1 15 -1 -66577 0
;
#X obj 19 110 cnv 15 60 20 empty empty CTRL 10 11 1 15 -262144 -66577
0;
#X obj -205 330 *~;
#X obj -182 330 *~;
#X obj -160 330 *~;
#X obj -133 217 tgl 15 0 empty empty empty 17 7 0 10 -262144 -1 -1
0 1;
#X obj -118 217 tgl 15 0 empty empty empty 17 7 0 10 -262144 -1 -1
0 1;
#X obj -103 217 tgl 15 0 empty empty empty 17 7 0 10 -262144 -1 -1
0 1;
#X obj -11 200 select 0 1 2;
#X obj -205 531 *~;
#X obj -94 516 tgl 15 0 empty empty empty 17 7 0 10 -262144 -1 -1 1
1;
#X obj -94 488 bng 15 250 50 0 empty empty empty 17 7 0 10 -262144
-1 -1;
#X obj -182 531 *~;
#X obj -160 531 *~;
#X obj -206 105 r~ glitchr_dry_signal;
#X obj -11 242 spigot;
#X obj 39 242 spigot;
#X obj -11 269 spigot;
#X obj 39 269 spigot;
#X obj -11 296 spigot;
#X obj 39 296 spigot;
#X obj -205 578 s~ glitchr_delay_send;
#N canvas 407 352 450 300 glitchr_standard_delay 0;
#X obj 134 28 inlet~;
#X obj 140 248 outlet~;
#X obj 303 28 inlet;
#X obj 270 138 *~ 0.6;
#X obj 140 206 delread~ AAPbasicdelay 150;
#X obj 135 69 delwrite~ AAPbasicdelay 500;
#X connect 0 0 5 0;
#X connect 2 0 3 1;
#X connect 3 0 5 0;
#X connect 4 0 3 0;
#X connect 4 0 1 0;
#X restore -205 426 pd glitchr_standard_delay;
#N canvas 153 66 861 694 glitchr_spectral_delay 0;
#X obj 152 34 inlet~;
#X obj 143 600 outlet~;
#N canvas 0 22 612 483 equal_power_crossfade 0;
#X obj 33 48 inlet~;
#X obj 244 58 inlet;
#X obj 33 332 outlet~;
#X obj 319 54 loadbang;
#X msg 319 74 0.5;
#X obj 49 194 expr cos($f1 * 3.14159 / 2);
#X obj 244 194 expr sin($f1 * 3.14159 / 2);
#X obj 244 134 clip 0 1;
#N canvas 0 22 450 300 pan_core 0;
#X obj 21 106 inlet~;
#X obj 226 126 inlet;
#X obj 80 453 *~;
#X obj 144 497 outlet~;
#X obj 210 452 *~;
#X obj 226 428 line~;
#X obj 96 428 line~;
#X obj 96 127 inlet;
#X obj 179 104 inlet~;
#X text 244 544 comment;
#X obj 96 389 pack f 5;
#X obj 226 389 pack f 5;
#X text 223 540 Hans-Christoph Steiner \, 2004;
#X text 223 526 Adapted from [pan_core~];
#X connect 0 0 2 0;
#X connect 1 0 11 0;
#X connect 2 0 3 0;
#X connect 4 0 3 0;
#X connect 5 0 4 1;
#X connect 6 0 2 1;
#X connect 7 0 10 0;
#X connect 8 0 4 0;
#X connect 10 0 6 0;
#X connect 11 0 5 0;
#X restore 39 266 pd pan_core;
#X text 256 437 Adapted from [equal_power_pan~] \, Hans-Christoph Steiner
\, 2004;
#X text 411 449 comment;
#X obj 128 46 inlet~;
#X connect 0 0 8 0;
#X connect 1 0 7 0;
#X connect 3 0 4 0;
#X connect 4 0 7 0;
#X connect 5 0 8 1;
#X connect 6 0 8 3;
#X connect 7 0 5 0;
#X connect 7 0 6 0;
#X connect 8 0 2 0;
#X connect 11 0 8 2;
#X restore 144 544 pd equal_power_crossfade;
#X obj 288 496 hsl 128 25 0 1 0 0 empty crossfade Dry_---_Wet_(crossfade)
-2 -8 0 10 -4034 -1 -1 6350 1;
#X obj 201 110 Guitar_specdelay~;
#X obj 200 497 *~ 10;
#N canvas 0 22 450 300 init 0;
#X obj 214 41 loadbang;
#X msg 217 77 \; del-sin 1 \; fb-sin 1 \; gain-flat 1 \; lp-freq 220
\; slope -0.04 \; crossfade 0.5 \;;
#X connect 0 0 1 0;
#X restore 714 67 pd init;
#X obj 378 59 inlet;
#X obj 437 68 inlet;
#X obj 556 57 inlet;
#X connect 0 0 4 0;
#X connect 0 0 2 0;
#X connect 2 0 1 0;
#X connect 3 0 2 2;
#X connect 4 0 5 0;
#X connect 5 0 2 1;
#X restore -160 351 pd glitchr_spectral_delay;
#X obj -94 460 r glitchr_delay_select_sender;
#N canvas 704 52 585 528 glitchr_sync_delay 0;
#X obj 22 39 inlet~;
#X obj 234 39 inlet;
#X obj 278 39 inlet;
#X obj 410 67 inlet;
#X obj 426 43 r tempocontrol;
#X obj 345 559 outlet~;
#X floatatom 426 246 5 0 0 0 - - -;
#X obj 425 265 pow -1;
#X obj 478 275 + 1;
#X obj 425 288 / 4;
#X obj 425 327 *;
#X obj 425 353 * 60000;
#X obj 22 150 +~;
#X obj 263 133 *~;
#X floatatom 479 246 5 0 0 0 - - -;
#X obj 234 229 t b b;
#X obj 345 527 +~;
#X obj 410 510 *~;
#X obj 345 495 *~;
#X obj 345 382 * -1;
#X obj 345 413 + 1;
#X obj 22 212 delwrite~ glitchr_sync_delay 2000;
#X obj 425 387 vd~ glitchr_sync_delay;
#X obj 426 138 / 4;
#X obj 234 85 int;
#X connect 0 0 12 0;
#X connect 0 0 18 1;
#X connect 1 0 14 0;
#X connect 1 0 24 0;
#X connect 2 0 13 1;
#X connect 3 0 19 0;
#X connect 3 0 17 0;
#X connect 4 0 23 0;
#X connect 6 0 7 0;
#X connect 7 0 9 0;
#X connect 8 0 10 1;
#X connect 9 0 10 0;
#X connect 10 0 11 0;
#X connect 11 0 22 0;
#X connect 12 0 21 0;
#X connect 13 0 12 1;
#X connect 14 0 8 0;
#X connect 15 0 6 0;
#X connect 15 1 14 0;
#X connect 16 0 5 0;
#X connect 17 0 16 1;
#X connect 18 0 16 0;
#X connect 19 0 20 0;
#X connect 20 0 18 0;
#X connect 22 0 13 0;
#X connect 22 0 17 1;
#X connect 23 0 6 0;
#X connect 24 0 15 0;
#X connect 24 0 14 0;
#X restore -182 387 pd glitchr_sync_delay;
#X msg 269 405 \; delay_knob_label_one label Step;
#X msg 467 404 \; delay_knob_label_two label Feedback;
#X msg 689 404 \; delay_knob_label_three label Dry/Wet;
#X msg 246 597 \; delay_knob_one range 0 1;
#X msg 269 435 \; delay_knob_one range 0 8;
#X msg 467 597 \; delay_knob_two range 0 1;
#X msg 467 435 \; delay_knob_two range 0 1;
#X msg 671 597 \; delay_knob_two range 0 1;
#X msg 689 434 \; delay_knob_two range 0 1;
#X connect 2 0 51 1;
#X connect 2 0 52 1;
#X connect 2 0 54 1;
#X connect 4 0 19 0;
#X connect 4 0 37 0;
#X connect 7 0 52 2;
#X connect 7 0 54 2;
#X connect 8 0 52 3;
#X connect 8 0 54 3;
#X connect 15 0 22 0;
#X connect 15 0 23 0;
#X connect 15 0 24 0;
#X connect 15 0 58 0;
#X connect 15 0 60 0;
#X connect 16 0 15 0;
#X connect 17 0 55 0;
#X connect 17 0 56 0;
#X connect 17 0 57 0;
#X connect 17 0 59 0;
#X connect 17 0 61 0;
#X connect 17 0 63 0;
#X connect 18 0 17 0;
#X connect 19 0 16 0;
#X connect 19 1 18 0;
#X connect 19 2 21 0;
#X connect 20 0 27 0;
#X connect 20 0 26 0;
#X connect 20 0 25 0;
#X connect 21 0 20 0;
#X connect 24 0 62 0;
#X connect 31 0 51 0;
#X connect 32 0 54 0;
#X connect 33 0 52 0;
#X connect 34 0 31 1;
#X connect 34 0 46 1;
#X connect 34 0 48 1;
#X connect 35 0 32 1;
#X connect 35 0 44 1;
#X connect 35 0 49 1;
#X connect 36 0 33 1;
#X connect 36 0 45 1;
#X connect 36 0 47 1;
#X connect 37 0 44 0;
#X connect 37 0 34 0;
#X connect 37 0 45 0;
#X connect 37 1 35 0;
#X connect 37 1 46 0;
#X connect 37 1 47 0;
#X connect 37 2 36 0;
#X connect 37 2 48 0;
#X connect 37 2 49 0;
#X connect 38 0 50 0;
#X connect 39 0 38 1;
#X connect 39 0 41 1;
#X connect 39 0 42 1;
#X connect 40 0 39 0;
#X connect 41 0 50 0;
#X connect 42 0 50 0;
#X connect 43 0 31 0;
#X connect 43 0 32 0;
#X connect 43 0 33 0;
#X connect 44 0 35 0;
#X connect 45 0 36 0;
#X connect 46 0 34 0;
#X connect 47 0 36 0;
#X connect 48 0 34 0;
#X connect 49 0 35 0;
#X connect 51 0 38 0;
#X connect 52 0 42 0;
#X connect 53 0 40 0;
#X connect 54 0 41 0;
#X connect 56 0 61 0;
#X connect 57 0 63 0;
#X coords 0 -1 1 1 120 300 1 100 100;
