#N canvas 0 22 1267 756 10;
#X obj 100 100 cnv 15 120 300 empty empty empty 20 12 0 14 -195634
-66577 0;
#X obj 105 105 cnv 15 110 290 empty empty empty 20 12 0 14 -54424 -66577
0;
#X obj -211 100 cnv 15 300 550 empty empty empty 20 12 0 14 -195634
-66577 0;
#X obj 14 105 cnv 15 70 30 empty empty empty 15 12 1 15 -1 -66577 0
;
#X obj 19 110 cnv 15 60 20 empty empty CTRL 10 11 1 15 -262144 -66577
0;
#X obj -205 531 *~;
#X obj -205 105 r~ glitchr_dry_signal;
#X obj 146 136 tgl 30 0 empty empty empty 17 7 0 10 -54424 -260097
-1 1 1;
#X obj 132 174 cnv 15 15 15 empty empty STANDARD 3 8 1 10 -54424 -195634
0;
#X obj 137 261 cnv 15 15 15 empty empty PHASOR 3 8 1 10 -54424 -195634
0;
#N canvas 525 86 698 756 glitchr_fiddler_fiddle 0;
#X obj -205 29 inlet~;
#X obj -120 345 outlet~;
#X obj -120 28 inlet;
#X obj 104 240 inlet;
#X obj -159 149 mtof;
#X obj -159 169 osc~;
#X obj -99 166 phasor~;
#X obj -99 186 expr~ $v1 > $v2;
#X obj -205 129 fiddle~ 1024;
#X obj -159 257 spigot~;
#X obj -99 257 spigot~;
#X obj -120 298 *~ 0.05;
#X obj -12 33 inlet;
#X obj 55 184 / 100;
#X connect 0 0 8 0;
#X connect 2 0 9 1;
#X connect 3 0 10 1;
#X connect 4 0 5 0;
#X connect 4 0 6 0;
#X connect 5 0 9 0;
#X connect 6 0 7 0;
#X connect 7 0 10 0;
#X connect 8 2 4 0;
#X connect 9 1 11 0;
#X connect 10 1 11 0;
#X connect 11 0 1 0;
#X connect 12 0 13 0;
#X connect 12 0 4 0;
#X connect 13 0 7 1;
#X restore -205 426 pd glitchr_fiddler_fiddle;
#X obj -94 460 r glitchr_fiddle_select_sender;
#X obj -205 578 s~ glitchr_fiddle_send;
#X obj 145 220 tgl 30 0 empty empty empty 17 7 0 10 -54424 -260097
-1 0 1;
#X obj 144 302 knob 32 32 0 127 0 0 empty empty empty 0 -8 0 8 -262144
-1 -1 2200 1;
#X obj 125 343 cnv 15 15 15 empty empty FREQUENCY 3 8 1 10 -54424 -195634
0;
#X obj -42 568 tgl 15 0 empty empty empty 17 7 0 10 -262144 -1 -1 0
0.02;
#X obj -4 489 bng 15 250 50 0 empty empty empty 17 7 0 10 -262144 -1
-1;
#X obj -42 538 line;
#X msg -42 504 1;
#X msg 33 504 0 1000;
#X connect 5 0 12 0;
#X connect 6 0 10 0;
#X connect 7 0 10 1;
#X connect 10 0 5 0;
#X connect 11 0 17 0;
#X connect 13 0 10 3;
#X connect 14 0 10 2;
#X connect 16 0 5 1;
#X connect 17 0 19 0;
#X connect 17 0 20 0;
#X connect 18 0 16 0;
#X connect 19 0 18 0;
#X connect 20 0 18 0;
#X coords 0 -1 1 1 120 300 2 100 100;
