#N canvas 30 22 787 756 10;
#X obj 100 100 cnv 15 360 360 empty empty empty 20 12 0 14 -195634
-66577 0;
#X obj 105 105 cnv 15 350 350 empty empty empty 20 12 0 14 -54424 -66577
0;
#X obj 113 232 vsl 30 128 0 1 0 0 empty mixer_fader_one empty 0 -9
0 10 -54424 -260097 -262144 12700 1;
#X obj 113 415 tgl 30 0 empty mixer_toggle_one empty 17 7 0 10 -54424
-260097 -262144 0 1;
#X obj 146 232 vsl 30 128 0 1 0 0 empty empty empty 0 -9 0 10 -54424
-260097 -1 0 1;
#X obj 146 415 tgl 30 0 empty mixer_toggle_two empty 17 7 0 10 -54424
-260097 -1 0 1;
#X obj 179 232 vsl 30 128 0 1 0 0 empty empty empty 0 -9 0 10 -54424
-260097 -1 0 1;
#X obj 179 415 tgl 30 0 empty mixer_toggle_three empty 17 7 0 10 -54424
-260097 -1 0 1;
#X obj 212 232 vsl 30 128 0 1 0 0 empty empty empty 0 -9 0 10 -54424
-260097 -1 0 1;
#X obj 212 415 tgl 30 0 empty mixer_toggle_four empty 17 7 0 10 -54424
-260097 -1 0 1;
#X obj 245 232 vsl 30 128 0 1 0 0 empty empty empty 0 -9 0 10 -54424
-260097 -1 0 1;
#X obj 245 415 tgl 30 0 empty mixer_toggle_five empty 17 7 0 10 -54424
-260097 -1 0 1;
#X obj 278 232 vsl 30 128 0 1 0 0 empty empty empty 0 -9 0 10 -54424
-260097 -1 0 1;
#X obj 278 415 tgl 30 0 empty mixer_toggle_six empty 17 7 0 10 -54424
-260097 -1 0 1;
#X obj 311 232 vsl 30 128 0 1 0 0 empty empty empty 0 -9 0 10 -54424
-260097 -1 7000 1;
#X obj 311 415 tgl 30 0 empty mixer_toggle_seven empty 17 7 0 10 -54424
-260097 -1 1 1;
#X obj 344 232 vsl 30 128 0 1 0 0 empty empty empty 0 -9 0 10 -54424
-260097 -1 0 1;
#X obj 344 415 tgl 30 0 empty mixer_toggle_eight empty 17 7 0 10 -54424
-260097 -1 0 1;
#X obj 418 232 vsl 30 128 0 1 0 0 empty empty empty 0 -9 0 10 -54424
-260097 -1 12100 1;
#X obj 418 415 tgl 30 0 empty mixer_toggle_master empty 17 7 0 10 -54424
-260097 -1 1 1;
#X obj 116 374 knob 25 25 0 1 0 0 empty empty empty 0 -8 0 8 -50327
-1 -1 1300 1;
#X obj 149 374 knob 25 25 0 1 0 0 empty empty empty 0 -8 0 8 -262144
-1 -1 0 1;
#X obj 182 374 knob 25 25 0 100 0 0 empty empty empty 0 -8 0 8 -262144
-1 -1 0 1;
#X obj 215 374 knob 25 25 0 100 0 0 empty empty empty 0 -8 0 8 -262144
-1 -1 0 1;
#X obj 248 374 knob 25 25 0 100 0 0 empty empty empty 0 -8 0 8 -262144
-1 -1 0 1;
#X obj 281 374 knob 25 25 0 100 0 0 empty empty empty 0 -8 0 8 -262144
-1 -1 0 1;
#X obj 314 374 knob 25 25 0 100 0 0 empty empty empty 0 -8 0 8 -262144
-1 -1 1300 1;
#X obj 347 374 knob 25 25 0 100 0 0 empty empty empty 0 -8 0 8 -262144
-1 -1 0 1;
#X obj 221 109 cnv 15 120 30 empty empty empty 32 11 1 14 -195634 -195634
0;
#X obj 224 112 cnv 15 114 24 empty empty MIXER 35 13 1 14 -54424 -195634
0;
#X obj 113 164 tgl 25 0 empty empty empty 17 7 0 10 -54424 -260097
-1 0 1;
#X obj 212 164 tgl 25 0 empty empty empty 17 7 0 10 -54424 -260097
-1 0 1;
#X obj 377 232 vsl 30 128 0 1 0 0 empty empty empty 0 -9 0 10 -54424
-260097 -1 0 1;
#X obj 377 415 tgl 30 0 empty mixer_toggle_nine empty 17 7 0 10 -54424
-260097 -1 0 1;
#X obj 420 374 knob 25 25 0 1 0 1 empty empty empty 0 -8 0 8 -262144
-1 -1 1200 1;
#X obj 120 214 cnv 15 10 10 empty empty DRY 0 0 1 8 -54424 -195634
0;
#X obj 149 214 cnv 15 10 10 empty empty DELAY 0 0 1 8 -54424 -195634
0;
#X obj 183 214 cnv 15 10 10 empty empty VERB 0 0 1 8 -54424 -195634
0;
#X obj 214 214 cnv 15 10 10 empty empty DSTRT 0 0 1 8 -54424 -195634
0;
#X obj 250 214 cnv 15 10 10 empty empty CRSH 0 0 1 8 -54424 -195634
0;
#X obj 281 214 cnv 15 10 10 empty empty GATE 0 0 1 8 -54424 -195634
0;
#X obj 320 214 cnv 15 10 10 empty empty FID 0 0 1 8 -54424 -195634
0;
#X obj 350 214 cnv 15 10 10 empty empty MOD 0 0 1 8 -54424 -195634
0;
#X obj 381 214 cnv 15 10 10 empty empty LOOP 0 0 1 8 -54424 -195634
0;
#X obj 143 172 cnv 15 10 10 empty empty FILTER 0 0 1 12 -54424 -195634
0;
#X obj 156 183 cnv 15 10 10 empty empty IN 0 0 1 12 -54424 -195634
0;
#X obj 244 171 cnv 15 10 10 empty empty COMP 0 0 1 12 -54424 -195634
0;
#X obj 253 182 cnv 15 10 10 empty empty IN 0 0 1 12 -54424 -195634
0;
#X obj 416 214 cnv 15 10 10 empty empty MASTER 0 0 1 8 -54424 -195634
0;
#X obj 380 374 knob 25 25 0 100 0 0 empty empty empty 0 -8 0 8 -262144
-1 -1 0 1;
#X obj -286 486 cnv 15 745 380 empty empty empty 20 12 0 14 -195634
-66577 0;
#X obj 384 492 cnv 15 70 30 empty empty empty 15 12 1 15 -1 -66577
0;
#X obj 389 497 cnv 15 60 20 empty empty AUDIO 6 11 1 15 -262144 -66577
0;
#X obj 1266 747;
#N canvas 19 63 1071 640 masterchannel 0;
#X obj -69 71 *~;
#X obj -69 125 *~;
#X obj 320 496 dac~;
#X obj -69 17 inlet~;
#X obj 70 61 bng 15 250 50 0 empty empty empty 17 7 0 10 -262144 -1
-1;
#X obj 21 142 *~;
#X obj 70 95 tgl 15 0 empty empty empty 17 7 0 10 -262144 -1 -1 0 1
;
#X obj -69 306 *~;
#X obj -54 268 tgl 15 0 empty empty empty 17 7 0 10 -262144 -1 -1 1
1;
#X obj -54 176 loadbang;
#X obj 534 61 bng 15 250 50 0 empty empty empty 17 7 0 10 -262144 -1
-1;
#X obj 371 142 *~;
#X obj 534 96 tgl 15 0 empty empty empty 17 7 0 10 -262144 -1 -1 0
1;
#X obj 289 459 *~;
#X obj 359 459 *~;
#X obj 304 402 expr 1 - $f1;
#X obj -4 16 inlet~;
#X obj -4 61 *~;
#X obj -4 115 *~;
#X obj -4 306 *~;
#X obj 143 442 r~ compressor_out_left;
#X obj 31 442 r~ filter_out_left;
#X obj 391 442 r~ compressor_out_right;
#X obj 533 442 r~ filter_out_right;
#X obj 21 194 s~ master_to_compressor_left;
#X obj -81 442 r~ master_out_left;
#X obj 651 442 r~ master_out_right;
#X obj -69 346 s~ master_out_left;
#X obj 18 323 s~ master_out_right;
#X obj 371 194 s~ master_to_filter_left;
#X obj 193 132 *~;
#X obj 193 177 s~ master_to_compressor_right;
#X obj 519 132 *~;
#X obj 519 177 s~ master_to_filter_right;
#X obj 70 16 inlet;
#X obj 534 16 inlet;
#X obj -54 44 inlet;
#X obj -54 98 inlet;
#X obj 357 347 inlet;
#X connect 0 0 1 0;
#X connect 1 0 5 0;
#X connect 1 0 7 0;
#X connect 1 0 11 0;
#X connect 3 0 0 0;
#X connect 4 0 6 0;
#X connect 4 0 8 0;
#X connect 5 0 24 0;
#X connect 6 0 5 1;
#X connect 6 0 30 1;
#X connect 7 0 27 0;
#X connect 8 0 7 1;
#X connect 8 0 19 1;
#X connect 9 0 8 0;
#X connect 10 0 12 0;
#X connect 10 0 8 0;
#X connect 11 0 29 0;
#X connect 12 0 11 1;
#X connect 12 0 32 1;
#X connect 13 0 2 0;
#X connect 14 0 2 1;
#X connect 15 0 13 1;
#X connect 16 0 17 0;
#X connect 17 0 18 0;
#X connect 18 0 19 0;
#X connect 18 0 30 0;
#X connect 18 0 32 0;
#X connect 19 0 28 0;
#X connect 20 0 13 0;
#X connect 21 0 13 0;
#X connect 22 0 14 0;
#X connect 23 0 14 0;
#X connect 25 0 13 0;
#X connect 26 0 14 0;
#X connect 30 0 31 0;
#X connect 32 0 33 0;
#X connect 34 0 4 0;
#X connect 35 0 10 0;
#X connect 36 0 0 1;
#X connect 36 0 17 1;
#X connect 37 0 1 1;
#X connect 37 0 18 1;
#X connect 38 0 14 1;
#X connect 38 0 15 0;
#X restore 354 837 pd masterchannel;
#X obj -283 531 r~ glitchr_dry_signal;
#X obj -106 531 r~ glitchr_delay_send;
#X obj 79 531 r~ glitchr_reverb_send;
#X obj -283 638 r~ glitchr_distortion_send;
#X obj -106 638 r~ glitchr_bitcrush_send;
#N canvas 602 237 450 300 glitchr_channel_strip 0;
#X obj 79 46 inlet~;
#X obj 119 71 inlet;
#X obj 79 88 *~;
#X obj 79 130 *~;
#X obj 119 113 inlet;
#X obj 118 152 inlet;
#X obj 80 217 *~;
#X obj 151 217 *~;
#X obj 95 178 expr 1 - $f1;
#X obj 80 263 outlet~;
#X obj 126 263 outlet~;
#X connect 0 0 2 0;
#X connect 1 0 2 1;
#X connect 2 0 3 0;
#X connect 3 0 6 0;
#X connect 3 0 7 0;
#X connect 4 0 3 1;
#X connect 5 0 7 1;
#X connect 5 0 8 0;
#X connect 6 0 9 0;
#X connect 7 0 10 0;
#X connect 8 0 6 1;
#X restore -283 606 pd glitchr_channel_strip;
#N canvas 602 237 450 300 glitchr_channel_strip 0;
#X obj 79 46 inlet~;
#X obj 119 71 inlet;
#X obj 79 88 *~;
#X obj 79 130 *~;
#X obj 119 113 inlet;
#X obj 118 152 inlet;
#X obj 80 217 *~;
#X obj 151 217 *~;
#X obj 95 178 expr 1 - $f1;
#X obj 80 263 outlet~;
#X obj 126 263 outlet~;
#X connect 0 0 2 0;
#X connect 1 0 2 1;
#X connect 2 0 3 0;
#X connect 3 0 6 0;
#X connect 3 0 7 0;
#X connect 4 0 3 1;
#X connect 5 0 7 1;
#X connect 5 0 8 0;
#X connect 6 0 9 0;
#X connect 7 0 10 0;
#X connect 8 0 6 1;
#X restore -105 598 pd glitchr_channel_strip;
#N canvas 319 258 450 300 glitchr_channel_strip 0;
#X obj 79 46 inlet~;
#X obj 119 71 inlet;
#X obj 79 88 *~;
#X obj 79 130 *~;
#X obj 119 113 inlet;
#X obj 118 152 inlet;
#X obj 80 217 *~;
#X obj 151 217 *~;
#X obj 95 178 expr 1 - $f1;
#X obj 80 263 outlet~;
#X obj 126 263 outlet~;
#X connect 0 0 2 0;
#X connect 1 0 2 1;
#X connect 2 0 3 0;
#X connect 3 0 6 0;
#X connect 3 0 7 0;
#X connect 4 0 3 1;
#X connect 5 0 7 1;
#X connect 5 0 8 0;
#X connect 6 0 9 0;
#X connect 7 0 10 0;
#X connect 8 0 6 1;
#X restore 79 606 pd glitchr_channel_strip;
#N canvas 319 258 450 300 glitchr_channel_strip 0;
#X obj 79 46 inlet~;
#X obj 119 71 inlet;
#X obj 79 88 *~;
#X obj 79 130 *~;
#X obj 119 113 inlet;
#X obj 118 152 inlet;
#X obj 80 217 *~;
#X obj 151 217 *~;
#X obj 95 178 expr 1 - $f1;
#X obj 80 263 outlet~;
#X obj 126 263 outlet~;
#X connect 0 0 2 0;
#X connect 1 0 2 1;
#X connect 2 0 3 0;
#X connect 3 0 6 0;
#X connect 3 0 7 0;
#X connect 4 0 3 1;
#X connect 5 0 7 1;
#X connect 5 0 8 0;
#X connect 6 0 9 0;
#X connect 7 0 10 0;
#X connect 8 0 6 1;
#X restore 79 713 pd glitchr_channel_strip;
#N canvas 319 258 450 300 glitchr_channel_strip 0;
#X obj 79 46 inlet~;
#X obj 119 71 inlet;
#X obj 79 88 *~;
#X obj 79 130 *~;
#X obj 119 113 inlet;
#X obj 118 152 inlet;
#X obj 80 217 *~;
#X obj 151 217 *~;
#X obj 95 178 expr 1 - $f1;
#X obj 80 263 outlet~;
#X obj 126 263 outlet~;
#X connect 0 0 2 0;
#X connect 1 0 2 1;
#X connect 2 0 3 0;
#X connect 3 0 6 0;
#X connect 3 0 7 0;
#X connect 4 0 3 1;
#X connect 5 0 7 1;
#X connect 5 0 8 0;
#X connect 6 0 9 0;
#X connect 7 0 10 0;
#X connect 8 0 6 1;
#X restore -106 713 pd glitchr_channel_strip;
#N canvas 319 258 450 300 glitchr_channel_strip 0;
#X obj 79 46 inlet~;
#X obj 119 71 inlet;
#X obj 79 88 *~;
#X obj 79 130 *~;
#X obj 119 113 inlet;
#X obj 118 152 inlet;
#X obj 80 217 *~;
#X obj 151 217 *~;
#X obj 95 178 expr 1 - $f1;
#X obj 80 263 outlet~;
#X obj 126 263 outlet~;
#X connect 0 0 2 0;
#X connect 1 0 2 1;
#X connect 2 0 3 0;
#X connect 3 0 6 0;
#X connect 3 0 7 0;
#X connect 4 0 3 1;
#X connect 5 0 7 1;
#X connect 5 0 8 0;
#X connect 6 0 9 0;
#X connect 7 0 10 0;
#X connect 8 0 6 1;
#X restore -283 713 pd glitchr_channel_strip;
#N canvas 319 258 450 300 glitchr_channel_strip 0;
#X obj 79 46 inlet~;
#X obj 119 71 inlet;
#X obj 79 88 *~;
#X obj 79 130 *~;
#X obj 119 113 inlet;
#X obj 118 152 inlet;
#X obj 80 217 *~;
#X obj 151 217 *~;
#X obj 95 178 expr 1 - $f1;
#X obj 80 263 outlet~;
#X obj 126 263 outlet~;
#X connect 0 0 2 0;
#X connect 1 0 2 1;
#X connect 2 0 3 0;
#X connect 3 0 6 0;
#X connect 3 0 7 0;
#X connect 4 0 3 1;
#X connect 5 0 7 1;
#X connect 5 0 8 0;
#X connect 6 0 9 0;
#X connect 7 0 10 0;
#X connect 8 0 6 1;
#X restore -283 820 pd glitchr_channel_strip;
#N canvas 319 258 450 300 glitchr_channel_strip 0;
#X obj 79 46 inlet~;
#X obj 119 71 inlet;
#X obj 79 88 *~;
#X obj 79 130 *~;
#X obj 119 113 inlet;
#X obj 118 152 inlet;
#X obj 80 217 *~;
#X obj 151 217 *~;
#X obj 95 178 expr 1 - $f1;
#X obj 80 263 outlet~;
#X obj 126 263 outlet~;
#X connect 0 0 2 0;
#X connect 1 0 2 1;
#X connect 2 0 3 0;
#X connect 3 0 6 0;
#X connect 3 0 7 0;
#X connect 4 0 3 1;
#X connect 5 0 7 1;
#X connect 5 0 8 0;
#X connect 6 0 9 0;
#X connect 7 0 10 0;
#X connect 8 0 6 1;
#X restore -106 820 pd glitchr_channel_strip;
#N canvas 319 258 450 300 glitchr_channel_strip 0;
#X obj 79 46 inlet~;
#X obj 119 71 inlet;
#X obj 79 88 *~;
#X obj 79 130 *~;
#X obj 119 113 inlet;
#X obj 118 152 inlet;
#X obj 80 217 *~;
#X obj 151 217 *~;
#X obj 95 178 expr 1 - $f1;
#X obj 80 263 outlet~;
#X obj 126 263 outlet~;
#X connect 0 0 2 0;
#X connect 1 0 2 1;
#X connect 2 0 3 0;
#X connect 3 0 6 0;
#X connect 3 0 7 0;
#X connect 4 0 3 1;
#X connect 5 0 7 1;
#X connect 5 0 8 0;
#X connect 6 0 9 0;
#X connect 7 0 10 0;
#X connect 8 0 6 1;
#X restore 79 820 pd glitchr_channel_strip;
#X obj -106 745 r~ glitchr_modulate_send;
#X obj 79 745 r~ glitchr_loop_send;
#X obj 79 638 r~ glitchr_gate_send;
#X obj -283 745 r~ glitchr_fiddle_send;
#X connect 2 0 60 2;
#X connect 3 0 60 3;
#X connect 4 0 61 2;
#X connect 5 0 61 3;
#X connect 6 0 62 2;
#X connect 7 0 62 3;
#X connect 8 0 65 2;
#X connect 9 0 65 3;
#X connect 10 0 64 2;
#X connect 11 0 64 3;
#X connect 12 0 63 2;
#X connect 13 0 63 3;
#X connect 14 0 66 2;
#X connect 15 0 66 3;
#X connect 16 0 67 2;
#X connect 17 0 67 3;
#X connect 18 0 54 1;
#X connect 19 0 54 2;
#X connect 20 0 60 1;
#X connect 21 0 61 1;
#X connect 22 0 62 1;
#X connect 23 0 65 1;
#X connect 24 0 64 1;
#X connect 25 0 63 1;
#X connect 26 0 66 1;
#X connect 27 0 67 1;
#X connect 30 0 54 6;
#X connect 31 0 54 4;
#X connect 32 0 68 2;
#X connect 33 0 68 3;
#X connect 34 0 54 5;
#X connect 49 0 68 1;
#X connect 55 0 60 0;
#X connect 56 0 61 0;
#X connect 57 0 62 0;
#X connect 58 0 65 0;
#X connect 59 0 64 0;
#X connect 60 0 54 0;
#X connect 60 1 54 3;
#X connect 61 0 54 0;
#X connect 61 1 54 3;
#X connect 62 0 54 0;
#X connect 62 1 54 3;
#X connect 63 0 54 0;
#X connect 63 1 54 3;
#X connect 64 0 54 0;
#X connect 64 1 54 3;
#X connect 65 0 54 0;
#X connect 65 1 54 3;
#X connect 66 0 54 0;
#X connect 66 1 54 3;
#X connect 67 0 54 0;
#X connect 67 1 54 3;
#X connect 68 0 54 0;
#X connect 68 1 54 3;
#X connect 69 0 67 0;
#X connect 70 0 68 0;
#X connect 71 0 63 0;
#X connect 72 0 66 0;
#X coords 0 -1 1 1 360 360 2 100 100;
