#N canvas 0 22 1276 756 10;
#X obj 100 100 cnv 15 120 300 empty empty empty 20 12 0 14 -195634
-66577 0;
#X obj 105 105 cnv 15 110 290 empty empty empty 20 12 0 14 -54424 -66577
0;
#X obj 123 226 knob 32 32 0 8 0 0 empty delay_knob_one empty 0 -8 0
8 -260097 -1 -1 0 1;
#X obj 152 129 cnv 15 15 15 empty empty STANDARD 3 8 1 10 -54424 -195634
0;
#X obj 125 125 vradio 25 1 0 3 empty empty empty 0 -8 0 10 -195634
-260097 -1 0;
#X obj 153 154 cnv 15 15 15 empty empty SYNC 3 8 1 10 -54424 -195634
0;
#X obj 153 180 cnv 15 15 15 empty empty DETUNE 3 8 1 10 -54424 -195634
0;
#X obj 123 279 knob 32 32 0 1 0 0 empty delay_knob_two empty 0 -8 0
8 -260097 -1 -1 0 1;
#X obj 123 337 knob 32 32 0 1 0 0 empty delay_knob_three empty 0 -8
0 8 -260097 -1 -1 0 1;
#X obj 161 230 cnv 15 15 15 empty delay_knob_label_one Step 3 8 1 10
-54424 -195634 0;
#X obj 162 288 cnv 15 15 15 empty delay_knob_label_two Feedback 3 8
1 10 -54424 -195634 0;
#X obj 162 347 cnv 15 15 15 empty delay_knob_label_three Dry/Wet 3
8 1 10 -54424 -195634 0;
#X obj 231 100 cnv 15 750 575 empty empty empty 20 12 0 14 -195634
-66577 0;
#X obj 237 105 cnv 15 70 30 empty empty empty 15 12 1 15 -1 -66577
0;
#X obj 242 110 cnv 15 60 20 empty empty GUI 15 11 1 15 -262144 -66577
0;
#X obj 246 547 bng 15 250 50 0 empty empty empty 17 7 0 10 -262144
-1 -1;
#X obj 246 500 == 0;
#X obj 269 397 bng 15 250 50 0 empty empty empty 17 7 0 10 -262144
-1 -1;
#X obj 269 361 == 1;
#X obj 246 200 select 0 1 2;
#X obj 292 263 bng 15 250 50 0 empty empty empty 17 7 0 10 -262144
-1 -1;
#X obj 292 227 == 2;
#X msg 246 592 \; delay_knob_label_one label Amount;
#X msg 467 592 \; delay_knob_label_two label N/A;
#X msg 671 592 \; delay_knob_label_three label N/A;
#X obj -211 100 cnv 15 300 550 empty empty empty 20 12 0 14 -195634
-66577 0;
#X obj 14 105 cnv 15 70 30 empty empty empty 15 12 1 15 -1 -66577 0
;
#X obj 19 110 cnv 15 60 20 empty empty CTRL 10 11 1 15 -262144 -66577
0;
#X obj -205 330 *~;
#X obj -182 330 *~;
#X obj -160 330 *~;
#X obj -133 217 tgl 15 0 empty empty empty 17 7 0 10 -262144 -1 -1
0 1;
#X obj -118 217 tgl 15 0 empty empty empty 17 7 0 10 -262144 -1 -1
0 1;
#X obj -103 217 tgl 15 0 empty empty empty 17 7 0 10 -262144 -1 -1
0 1;
#X obj -11 200 select 0 1 2;
#X obj -205 531 *~;
#X obj -182 531 *~;
#X obj -160 531 *~;
#X obj -206 105 r~ glitchr_dry_signal;
#X obj -11 242 spigot;
#X obj 35 242 spigot;
#X obj -11 269 spigot;
#X obj 35 269 spigot;
#X obj -11 296 spigot;
#X obj 35 296 spigot;
#X obj -205 578 s~ glitchr_delay_send;
#N canvas 407 352 450 300 glitchr_standard_delay 0;
#X obj 134 28 inlet~;
#X obj 140 248 outlet~;
#X obj 303 28 inlet;
#X obj 270 138 *~ 0.6;
#X obj 135 69 delwrite~ glitchr_basic_delay 500;
#X obj 140 206 delread~ glitchr_basic_delay 150;
#X connect 0 0 4 0;
#X connect 2 0 3 1;
#X connect 3 0 4 0;
#X connect 5 0 3 0;
#X connect 5 0 1 0;
#X restore -205 426 pd glitchr_standard_delay;
#N canvas 292 35 984 743 glitchr_sync_delay 0;
#X obj 22 39 inlet~;
#X obj 234 39 inlet;
#X obj 278 39 inlet;
#X obj 410 67 inlet;
#X obj 426 43 r tempocontrol;
#X obj 345 559 outlet~;
#X floatatom 426 246 5 0 0 0 - - -;
#X obj 425 265 pow -1;
#X obj 478 275 + 1;
#X obj 425 288 / 4;
#X obj 425 327 *;
#X obj 425 353 * 60000;
#X obj 22 150 +~;
#X obj 263 133 *~;
#X floatatom 479 246 5 0 0 0 - - -;
#X obj 234 229 t b b;
#X obj 345 527 +~;
#X obj 410 510 *~;
#X obj 345 495 *~;
#X obj 345 382 * -1;
#X obj 345 413 + 1;
#X obj 22 212 delwrite~ glitchr_sync_delay 2000;
#X obj 425 387 vd~ glitchr_sync_delay;
#X obj 426 138 / 4;
#X obj 234 85 int;
#X connect 0 0 12 0;
#X connect 0 0 18 1;
#X connect 1 0 14 0;
#X connect 1 0 24 0;
#X connect 2 0 13 1;
#X connect 3 0 19 0;
#X connect 3 0 17 0;
#X connect 4 0 23 0;
#X connect 6 0 7 0;
#X connect 7 0 9 0;
#X connect 8 0 10 1;
#X connect 9 0 10 0;
#X connect 10 0 11 0;
#X connect 11 0 22 0;
#X connect 12 0 21 0;
#X connect 13 0 12 1;
#X connect 14 0 8 0;
#X connect 15 0 6 0;
#X connect 15 1 14 0;
#X connect 16 0 5 0;
#X connect 17 0 16 1;
#X connect 18 0 16 0;
#X connect 19 0 20 0;
#X connect 20 0 18 0;
#X connect 22 0 13 0;
#X connect 22 0 17 1;
#X connect 23 0 6 0;
#X connect 24 0 15 0;
#X connect 24 0 14 0;
#X restore -182 387 pd glitchr_sync_delay;
#X msg 269 430 \; delay_knob_label_one label Step;
#X msg 467 429 \; delay_knob_label_two label Feedback;
#X msg 689 429 \; delay_knob_label_three label Dry/Wet;
#X msg 246 622 \; delay_knob_one range 0 1;
#X msg 269 460 \; delay_knob_one range 0 8;
#X msg 467 622 \; delay_knob_two range 0 1;
#X msg 467 460 \; delay_knob_two range 0 1;
#X msg 671 622 \; delay_knob_two range 0 1;
#X msg 689 459 \; delay_knob_two range 0 1;
#X msg 712 325 \; delay_knob_three range 0 1;
#X msg 490 326 \; delay_knob_two range 0 1;
#N canvas 153 90 861 670 glitchr_detune_delay 0;
#X obj 257 332 phasor~;
#X obj 257 400 *~;
#X obj 430 349 +~ 0.5;
#X obj 430 373 wrap~;
#X obj 430 409 *~;
#X obj 196 432 cos~;
#X obj 196 459 *~;
#X obj 196 380 -~ 0.5;
#X obj 196 406 *~ 0.5;
#X obj 510 524 cos~;
#X obj 510 550 *~;
#X obj 510 390 -~ 0.5;
#X obj 510 498 *~ 0.5;
#X obj 57 102 line~;
#X obj 58 83 pack 0 5;
#X obj 119 118 *~;
#X obj -87 119 *~;
#X obj 258 308 line~;
#X obj 259 289 pack 0 5;
#X obj 322 379 line~;
#X obj 323 360 pack 0 5;
#X obj 256 420 *~;
#X obj 430 444 *~;
#X obj -87 -84 inlet~;
#X obj -87 99 r~ glitchr_detune_one;
#X obj 119 97 r~ glitchr_detune_two;
#X obj 196 501 s~ glitchr_detune_one;
#X obj 510 570 s~ glitchr_detune_two;
#X obj 256 442 vd~ glitchr_delwrite_one;
#X obj 431 467 vd~ glitchr_delwrite_two;
#X obj 196 567 outlet~;
#X obj 58 -84 inlet;
#X obj 259 -84 inlet;
#X obj 323 -84 inlet;
#X obj -87 146 delwrite~ glitchr_delwrite_one 1500;
#X obj 278 135 delwrite~ glitchr_delwrite_two 1500;
#X connect 0 0 1 0;
#X connect 0 0 1 1;
#X connect 0 0 2 0;
#X connect 0 0 7 0;
#X connect 1 0 21 0;
#X connect 2 0 3 0;
#X connect 3 0 4 0;
#X connect 3 0 4 1;
#X connect 3 0 11 0;
#X connect 4 0 22 0;
#X connect 5 0 6 0;
#X connect 6 0 26 0;
#X connect 6 0 30 0;
#X connect 7 0 8 0;
#X connect 8 0 5 0;
#X connect 9 0 10 0;
#X connect 10 0 27 0;
#X connect 10 0 30 0;
#X connect 11 0 12 0;
#X connect 12 0 9 0;
#X connect 13 0 16 1;
#X connect 13 0 15 1;
#X connect 14 0 13 0;
#X connect 15 0 35 0;
#X connect 16 0 34 0;
#X connect 17 0 0 0;
#X connect 18 0 17 0;
#X connect 19 0 21 1;
#X connect 19 0 22 1;
#X connect 20 0 19 0;
#X connect 21 0 28 0;
#X connect 22 0 29 0;
#X connect 23 0 34 0;
#X connect 23 0 35 0;
#X connect 24 0 16 0;
#X connect 25 0 15 0;
#X connect 28 0 6 1;
#X connect 29 0 10 1;
#X connect 31 0 14 0;
#X connect 32 0 18 0;
#X connect 33 0 20 0;
#X restore -160 351 pd glitchr_detune_delay;
#X msg 292 296 \; delay_knob_label_one label Feedback;
#X msg 515 296 \; delay_knob_label_two label Speed;
#X msg 720 296 \; delay_knob_label_three label Depth;
#X msg 292 326 \; delay_knob_one range 0 1;
#X obj -45 571 tgl 15 0 empty empty empty 17 7 0 10 -262144 -1 -1 0
0.02;
#X obj -7 492 bng 15 250 50 0 empty empty empty 17 7 0 10 -262144 -1
-1;
#X obj -7 464 r glitchr_delay_select_sender;
#X obj -45 541 line;
#X msg -45 507 1;
#X msg 30 507 0 1000;
#X connect 2 0 46 1;
#X connect 2 0 47 1;
#X connect 2 0 59 1;
#X connect 4 0 19 0;
#X connect 4 0 34 0;
#X connect 7 0 47 2;
#X connect 7 0 59 2;
#X connect 8 0 47 3;
#X connect 8 0 59 3;
#X connect 15 0 22 0;
#X connect 15 0 23 0;
#X connect 15 0 24 0;
#X connect 15 0 51 0;
#X connect 15 0 53 0;
#X connect 16 0 15 0;
#X connect 17 0 48 0;
#X connect 17 0 49 0;
#X connect 17 0 50 0;
#X connect 17 0 52 0;
#X connect 17 0 54 0;
#X connect 17 0 56 0;
#X connect 18 0 17 0;
#X connect 19 0 16 0;
#X connect 19 1 18 0;
#X connect 19 2 21 0;
#X connect 20 0 60 0;
#X connect 20 0 61 0;
#X connect 20 0 62 0;
#X connect 20 0 63 0;
#X connect 20 0 58 0;
#X connect 20 0 57 0;
#X connect 21 0 20 0;
#X connect 24 0 55 0;
#X connect 28 0 46 0;
#X connect 29 0 47 0;
#X connect 30 0 59 0;
#X connect 31 0 28 1;
#X connect 31 0 41 1;
#X connect 31 0 43 1;
#X connect 32 0 29 1;
#X connect 32 0 39 1;
#X connect 32 0 44 1;
#X connect 33 0 30 1;
#X connect 33 0 40 1;
#X connect 33 0 42 1;
#X connect 34 0 39 0;
#X connect 34 0 31 0;
#X connect 34 0 40 0;
#X connect 34 1 32 0;
#X connect 34 1 41 0;
#X connect 34 1 42 0;
#X connect 34 2 33 0;
#X connect 34 2 43 0;
#X connect 34 2 44 0;
#X connect 35 0 45 0;
#X connect 36 0 45 0;
#X connect 37 0 45 0;
#X connect 38 0 28 0;
#X connect 38 0 29 0;
#X connect 38 0 30 0;
#X connect 39 0 32 0;
#X connect 40 0 33 0;
#X connect 41 0 31 0;
#X connect 42 0 33 0;
#X connect 43 0 31 0;
#X connect 44 0 32 0;
#X connect 46 0 35 0;
#X connect 47 0 36 0;
#X connect 49 0 54 0;
#X connect 50 0 56 0;
#X connect 59 0 37 0;
#X connect 64 0 37 1;
#X connect 64 0 36 1;
#X connect 64 0 35 1;
#X connect 65 0 68 0;
#X connect 65 0 69 0;
#X connect 66 0 65 0;
#X connect 67 0 64 0;
#X connect 68 0 67 0;
#X connect 69 0 67 0;
#X coords 0 -1 1 1 120 300 2 100 100;
