#N canvas 0 22 1276 756 10;
#X obj 100 100 cnv 15 120 300 empty empty empty 20 12 0 14 -195634
-66577 0;
#X obj 105 105 cnv 15 110 290 empty empty empty 20 12 0 14 -54424 -66577
0;
#X obj 123 226 knob 32 32 0.5 25 0 0 empty modulate_knob_one empty
0 -8 0 8 -260097 -1 -1 0 1;
#X obj 152 119 cnv 15 15 15 empty empty RING 3 8 1 10 -54424 -195634
0;
#X obj 125 115 vradio 25 1 0 4 empty empty empty 0 -8 0 10 -195634
-260097 -1 0;
#X obj 153 144 cnv 15 15 15 empty empty WHA 3 8 1 10 -54424 -195634
0;
#X obj 153 170 cnv 15 15 15 empty empty VIBRATO 3 8 1 10 -54424 -195634
0;
#X obj 123 279 knob 32 32 1 20 0 0 empty delay_knob_two empty 0 -8
0 8 -260097 -1 -1 0 1;
#X obj 123 337 knob 32 32 0 1 0 0 empty delay_knob_three empty 0 -8
0 8 -260097 -1 -1 0 1;
#X obj 161 230 cnv 15 15 15 empty modulate_knob_label_one Frequency
3 8 1 10 -54424 -195634 0;
#X obj 162 288 cnv 15 15 15 empty modulate_knob_label_two Shape 3 8
1 10 -54424 -195634 0;
#X obj 162 347 cnv 15 15 15 empty modulate_knob_label_three Depth 3
8 1 10 -54424 -195634 0;
#X obj 231 100 cnv 15 850 575 empty empty empty 20 12 0 14 -195634
-66577 0;
#X obj 237 105 cnv 15 70 30 empty empty empty 15 12 1 15 -1 -66577
0;
#X obj 242 110 cnv 15 60 20 empty empty GUI 15 11 1 15 -262144 -66577
0;
#X obj 246 562 bng 15 250 50 0 empty empty empty 17 7 0 10 -262144
-1 -1;
#X obj 246 515 == 0;
#X obj 269 412 bng 15 250 50 0 empty empty empty 17 7 0 10 -262144
-1 -1;
#X obj 269 376 == 1;
#X obj 292 278 bng 15 250 50 0 empty empty empty 17 7 0 10 -262144
-1 -1;
#X obj 292 242 == 2;
#X obj -211 100 cnv 15 300 550 empty empty empty 20 12 0 14 -195634
-66577 0;
#X obj 14 105 cnv 15 70 30 empty empty empty 15 12 1 15 -1 -66577 0
;
#X obj 19 110 cnv 15 60 20 empty empty CTRL 10 11 1 15 -262144 -66577
0;
#X obj -205 330 *~;
#X obj -182 330 *~;
#X obj -160 330 *~;
#X obj -133 217 tgl 15 0 empty empty empty 17 7 0 10 -262144 -1 -1
0 1;
#X obj -118 217 tgl 15 0 empty empty empty 17 7 0 10 -262144 -1 -1
0 1;
#X obj -103 217 tgl 15 0 empty empty empty 17 7 0 10 -262144 -1 -1
0 1;
#X obj -205 531 *~;
#X obj -182 531 *~;
#X obj -160 531 *~;
#X obj -206 105 r~ glitchr_dry_signal;
#X obj -52 242 spigot;
#X obj -2 242 spigot;
#X obj -52 269 spigot;
#X obj -2 269 spigot;
#X obj -52 296 spigot;
#X obj -2 296 spigot;
#X obj -205 578 s~ glitchr_modulate_send;
#N canvas 407 352 450 300 glitchr_ring_modulate 0;
#X obj 134 28 inlet~;
#X obj 140 248 outlet~;
#X obj 303 28 inlet;
#X obj 180 131 *~;
#X obj 236 95 mtof~;
#X obj 223 142 osc~;
#X connect 0 0 3 0;
#X connect 2 0 4 0;
#X connect 3 0 1 0;
#X connect 4 0 5 0;
#X connect 5 0 3 1;
#X restore -205 426 pd glitchr_ring_modulate;
#N canvas 704 52 585 528 glitchr_wha_modulate 0;
#X obj 41 399 vcf~;
#X obj 91 45 +~ 1;
#X obj 91 66 *~ 0.5;
#X obj 91 24 osc~ 2;
#X obj 135 97 -;
#X obj 180 80 bang;
#X obj 51 196 +~ 200;
#X obj 51 114 *~ 1500;
#X obj 41 438 outlet~;
#X obj 41 -9 inlet~;
#X obj 91 -9 inlet;
#X obj 135 -9 inlet;
#X obj 180 -9 inlet;
#X connect 0 0 8 0;
#X connect 1 0 2 0;
#X connect 2 0 7 0;
#X connect 3 0 1 0;
#X connect 4 0 7 1;
#X connect 5 0 4 0;
#X connect 6 0 0 1;
#X connect 7 0 6 0;
#X connect 9 0 0 0;
#X connect 10 0 3 0;
#X connect 11 0 4 0;
#X connect 12 0 4 1;
#X connect 12 0 6 1;
#X connect 12 0 5 0;
#X restore -182 401 pd glitchr_wha_modulate;
#N canvas 153 90 1123 688 glitchr_vibrato_modulate 0;
#X obj 227 -37 *~ 1;
#X obj 227 -15 +~ 2;
#X obj 227 -78 osc~ 2;
#X obj 288 -32 * 2;
#X obj 43 -106 inlet~;
#X obj 43 -78 delwrite~ glitchr_vibrato 50;
#X obj 227 40 outlet~;
#X obj 227 -106 inlet;
#X obj 288 -106 inlet;
#X obj 227 9 vd~ glitchr_vibrato;
#X connect 0 0 1 0;
#X connect 1 0 9 0;
#X connect 2 0 0 0;
#X connect 3 0 1 1;
#X connect 4 0 5 0;
#X connect 7 0 2 0;
#X connect 8 0 3 0;
#X connect 8 0 0 1;
#X connect 9 0 6 0;
#X restore -160 379 pd glitchr_vibrato_modulate;
#N canvas 153 90 861 670 glitchr_tremolo_modulate 0;
#X obj 211 80 osc~;
#X obj 211 146 *~;
#X obj 211 197 clip~ -1 1;
#X obj 154 326 *~;
#X obj 211 280 *~;
#X obj 211 309 +~;
#X obj 154 365 outlet~;
#X obj 154 11 inlet~;
#X obj 211 11 inlet;
#X obj 334 263 inlet;
#X obj 285 129 inlet;
#X connect 0 0 1 0;
#X connect 1 0 2 0;
#X connect 2 0 4 0;
#X connect 3 0 6 0;
#X connect 4 0 5 0;
#X connect 5 0 3 1;
#X connect 7 0 3 0;
#X connect 8 0 0 0;
#X connect 9 0 4 1;
#X connect 9 0 5 1;
#X connect 10 0 1 1;
#X restore -138 357 pd glitchr_tremolo_modulate;
#X obj 153 194 cnv 15 15 15 empty empty TREM 3 8 1 10 -54424 -195634
0;
#X obj 246 215 select 0 1 2 3;
#X obj 350 185 bng 15 250 50 0 empty empty empty 17 7 0 10 -262144
-1 -1;
#X obj 350 149 == 3;
#X obj -11 200 select 0 1 2 3;
#X obj -88 217 tgl 15 0 empty empty empty 17 7 0 10 -262144 -1 -1 0
1;
#X obj -51 324 spigot;
#X obj -1 324 spigot;
#X obj -138 330 *~;
#X obj -138 531 *~;
#X msg 246 637 \; modulate_knob_one range 0.5 25;
#X msg 492 637 \; modulate_knob_two range 1 20;
#X msg 712 636 \; modulate_knob_three range 0 1;
#X msg 578 248 \; modulate_knob_two range 1 20;
#X msg 752 340 \; modulate_knob_three range 0 1;
#X msg 824 247 \; modulate_knob_three range 0 1;
#X msg 246 607 \; modulate_knob_label_one label Frequency;
#X msg 492 607 \; modulate_knob_label_two label Shape;
#X msg 712 606 \; modulate_knob_label_three label Depth;
#X msg 832 218 \; modulate_knob_label_three label Depth;
#X msg 603 218 \; modulate_knob_label_two label Shape;
#X msg 350 218 \; modulate_knob_label_one label Frequency;
#X obj 48 242 spigot;
#X obj 48 269 spigot;
#X obj 48 296 spigot;
#X obj 49 324 spigot;
#X msg 292 341 \; modulate_knob_one range 1 5;
#X msg 350 248 \; modulate_knob_one range 1 5;
#X msg 292 311 \; modulate_knob_label_one label Speed;
#X msg 535 311 \; modulate_knob_label_two label Depth;
#X msg 760 311 \; modulate_knob_label_three label N/A;
#X msg 510 341 \; modulate_knob_two range 1 5;
#X msg 269 475 \; modulate_knob_one range 0.5 4;
#X msg 516 475 \; modulate_knob_two range 700 6000;
#X msg 738 474 \; modulate_knob_three range 0 700;
#X msg 269 445 \; modulate_knob_label_one label LFO Freq;
#X msg 516 444 \; modulate_knob_label_two label Max;
#X msg 738 444 \; modulate_knob_label_three label Min;
#X obj 1 609 tgl 15 0 empty empty empty 17 7 0 10 -262144 -1 -1 0 0.02
;
#X obj 39 530 bng 15 250 50 0 empty empty empty 17 7 0 10 -262144 -1
-1;
#X obj 1 579 line;
#X msg 1 545 1;
#X msg 76 545 0 1000;
#X obj -114 460 r glitchr_modulate_select_sender;
#X connect 2 0 44 1;
#X connect 2 0 43 1;
#X connect 2 0 42 1;
#X connect 2 0 41 1;
#X connect 4 0 46 0;
#X connect 4 0 49 0;
#X connect 7 0 44 2;
#X connect 7 0 43 2;
#X connect 7 0 42 2;
#X connect 8 0 44 3;
#X connect 8 0 42 3;
#X connect 15 0 61 0;
#X connect 15 0 62 0;
#X connect 15 0 63 0;
#X connect 15 0 55 0;
#X connect 15 0 56 0;
#X connect 16 0 15 0;
#X connect 17 0 80 0;
#X connect 17 0 81 0;
#X connect 17 0 82 0;
#X connect 17 0 77 0;
#X connect 17 0 78 0;
#X connect 17 0 79 0;
#X connect 18 0 17 0;
#X connect 19 0 73 0;
#X connect 19 0 74 0;
#X connect 19 0 75 0;
#X connect 19 0 71 0;
#X connect 19 0 76 0;
#X connect 19 0 59 0;
#X connect 20 0 19 0;
#X connect 24 0 41 0;
#X connect 25 0 42 0;
#X connect 26 0 43 0;
#X connect 27 0 24 1;
#X connect 27 0 36 1;
#X connect 27 0 38 1;
#X connect 27 0 51 1;
#X connect 28 0 25 1;
#X connect 28 0 34 1;
#X connect 28 0 39 1;
#X connect 28 0 52 1;
#X connect 29 0 26 1;
#X connect 29 0 35 1;
#X connect 29 0 37 1;
#X connect 29 0 70 1;
#X connect 30 0 40 0;
#X connect 31 0 40 0;
#X connect 32 0 40 0;
#X connect 33 0 24 0;
#X connect 33 0 25 0;
#X connect 33 0 26 0;
#X connect 33 0 53 0;
#X connect 34 0 28 0;
#X connect 35 0 29 0;
#X connect 36 0 27 0;
#X connect 37 0 29 0;
#X connect 38 0 27 0;
#X connect 39 0 28 0;
#X connect 41 0 30 0;
#X connect 42 0 31 0;
#X connect 43 0 32 0;
#X connect 44 0 54 0;
#X connect 46 0 16 0;
#X connect 46 1 18 0;
#X connect 46 2 20 0;
#X connect 46 3 48 0;
#X connect 47 0 66 0;
#X connect 47 0 65 0;
#X connect 47 0 64 0;
#X connect 47 0 72 0;
#X connect 47 0 58 0;
#X connect 47 0 60 0;
#X connect 48 0 47 0;
#X connect 49 0 34 0;
#X connect 49 0 27 0;
#X connect 49 0 35 0;
#X connect 49 0 67 0;
#X connect 49 1 28 0;
#X connect 49 1 36 0;
#X connect 49 1 37 0;
#X connect 49 1 68 0;
#X connect 49 2 29 0;
#X connect 49 2 38 0;
#X connect 49 2 39 0;
#X connect 49 2 69 0;
#X connect 49 3 50 0;
#X connect 49 3 51 0;
#X connect 49 3 52 0;
#X connect 49 3 70 0;
#X connect 50 0 53 1;
#X connect 50 0 67 1;
#X connect 50 0 68 1;
#X connect 50 0 69 1;
#X connect 51 0 27 0;
#X connect 52 0 28 0;
#X connect 53 0 44 0;
#X connect 54 0 40 0;
#X connect 63 0 57 0;
#X connect 67 0 50 0;
#X connect 68 0 50 0;
#X connect 69 0 50 0;
#X connect 70 0 29 0;
#X connect 81 0 78 0;
#X connect 82 0 79 0;
#X connect 83 0 54 1;
#X connect 83 0 32 1;
#X connect 83 0 31 1;
#X connect 83 0 30 1;
#X connect 84 0 86 0;
#X connect 84 0 87 0;
#X connect 85 0 83 0;
#X connect 86 0 85 0;
#X connect 87 0 85 0;
#X connect 88 0 84 0;
#X coords 0 -1 1 1 120 300 2 100 100;
